<svg xmlns="http://www.w3.org/2000/svg" xmlns:xlink="http://www.w3.org/1999/xlink" xmlns:inkscape="http://www.inkscape.org/namespaces/inkscape" version="1.1" width="375" height="375" viewBox="0 0 375 375">
<defs>
<clipPath id="clip_1">
<path transform="matrix(.24,0,0,.24,0,0)" d="M0 0H1562.5V1562.5H0Z" clip-rule="evenodd"/>
</clipPath>
<clipPath id="clip_2">
<path transform="matrix(.24,0,0,.24,0,0)" d="M0 0H1562.5V1562.5H0Z" clip-rule="evenodd"/>
</clipPath>
<clipPath id="clip_3">
<path transform="matrix(.24,0,0,.24,0,0)" d="M844.2717 672.3017H1143.6825V745.3607H844.2717Z" clip-rule="evenodd"/>
</clipPath>
<clipPath id="clip_4">
<path transform="matrix(.24,0,0,.24,202.56,161.28)" d="M0 0H300V74H0Z" clip-rule="evenodd"/>
</clipPath>
<clipPath id="clip_5">
<path transform="matrix(.24,0,0,.24,0,0)" d="M525.59207 815.9813H844.2717V904.80947H525.59207Z" clip-rule="evenodd"/>
</clipPath>
<clipPath id="clip_6">
<path transform="matrix(.24,0,0,.24,126,195.59999)" d="M0 0H320V90H0Z" clip-rule="evenodd"/>
</clipPath>
<clipPath id="clip_7">
<path transform="matrix(.24,0,0,.24,0,0)" d="M458.4384 964.1844H844.2717V1053.0012H458.4384Z" clip-rule="evenodd"/>
</clipPath>
<clipPath id="clip_8">
<path transform="matrix(.24,0,0,.24,109.92,231.36)" d="M0 0H387V90H0Z" clip-rule="evenodd"/>
</clipPath>
<clipPath id="clip_9">
<path transform="matrix(.24,0,0,.24,0,0)" d="M458.42744 672.27578H525.58108V904.78347H458.42744Z" clip-rule="evenodd"/>
</clipPath>
<clipPath id="clip_10">
<path transform="matrix(.24,0,0,.24,109.92,161.28)" d="M0 0H68V233H0Z" clip-rule="evenodd"/>
</clipPath>
<clipPath id="clip_11">
<path transform="matrix(.24,0,0,.24,0,0)" d="M794.7391 815.96029H844.2903V1044.3807H794.7391Z" clip-rule="evenodd"/>
</clipPath>
<clipPath id="clip_12">
<path transform="matrix(.24,0,0,.24,190.56,195.59999)" d="M0 0H51V230H0Z" clip-rule="evenodd"/>
</clipPath>
<clipPath id="clip_13">
<path transform="matrix(.24,0,0,.24,0,0)" d="M829.53829 977.7367H1158.416V1053.0012H829.53829Z" clip-rule="evenodd"/>
</clipPath>
<clipPath id="clip_14">
<path transform="matrix(.24,0,0,.24,198.95999,234.48)" d="M0 0H330V77H0Z" clip-rule="evenodd"/>
</clipPath>
<clipPath id="clip_15">
<path transform="matrix(.24,0,0,.24,0,0)" d="M458.4384 672.3017H844.2717V745.3607H458.4384Z" clip-rule="evenodd"/>
</clipPath>
<clipPath id="clip_16">
<path transform="matrix(.24,0,0,.24,109.92,161.28)" d="M0 0H387V74H0Z" clip-rule="evenodd"/>
</clipPath>
<clipPath id="clip_17">
<path transform="matrix(.24,0,0,.24,0,0)" d="M0 0H1562.5V1562.5H0Z" clip-rule="evenodd"/>
</clipPath>
</defs>
<g>
<g clip-path="url(#clip_1)">
<path transform="matrix(.75,0,0,.75,0,0)" d="M0 0H500V500H0Z" fill="#ffffff"/>
</g>
<g clip-path="url(#clip_2)">
<path transform="matrix(.75,0,0,.75,0,0)" d="M0 0H500V500H0Z" fill="#ffffff"/>
</g>
<g clip-path="url(#clip_3)">
<g>
<g clip-path="url(#clip_4)">
<path transform="matrix(.06849286,0,0,.06849286,202.62522,161.3524)" d="M0 0H1049V256H0Z"/>
</g>
</g>
</g>
<g clip-path="url(#clip_5)">
<g>
<g clip-path="url(#clip_6)">
<path transform="matrix(.083276357,0,0,.083276357,126.14209,195.83551)" d="M0 0H918V256H0Z"/>
</g>
</g>
</g>
<g clip-path="url(#clip_7)">
<g>
<g clip-path="url(#clip_8)">
<path transform="matrix(.083265747,0,0,.083265747,110.02521,231.40425)" d="M0 0H1112V256H0Z"/>
</g>
</g>
</g>
<g clip-path="url(#clip_9)">
<g>
<g clip-path="url(#clip_10)">
<path transform="matrix(0,-.06295655,.06295655,0,110.02258,217.14803)" d="M0 0H886V256H0Z"/>
</g>
</g>
</g>
<g clip-path="url(#clip_11)">
<g>
<g clip-path="url(#clip_12)">
<path transform="matrix(0,-.04645425,.04645425,0,190.73738,250.65137)" d="M0 0H1180V256H0Z"/>
</g>
</g>
</g>
<g clip-path="url(#clip_13)">
<g>
<g clip-path="url(#clip_14)">
<path transform="matrix(.0705605,0,0,.0705605,199.08917,234.6568)" d="M0 0H1119V256H0Z"/>
</g>
</g>
</g>
<g clip-path="url(#clip_15)">
<g>
<g clip-path="url(#clip_16)">
<path transform="matrix(.06849286,0,0,.06849286,110.02521,161.3524)" d="M0 0H1352V256H0Z"/>
</g>
</g>
</g>
<g clip-path="url(#clip_17)">
<text xml:space="preserve" transform="matrix(.75 0 0 .75 104.07906 264.46903)" font-size="33.34" font-family="Lovelo Black"><tspan y="30" x="0 17.630539 39.260454 62.723405 78.85344 100.61665 121.64665">Syntax </tspan></text>
<text xml:space="preserve" transform="matrix(.75 0 0 .75 104.07906 264.46903)" font-size="33.34" font-family="Noto Sans"><tspan y="30" x="131.11182">&#x0026;</tspan></text>
<text xml:space="preserve" transform="matrix(.75 0 0 .75 104.07906 264.46903)" font-size="33.34" font-family="Lovelo Black"><tspan y="30" x="155.50795 164.97312 185.0366 213.26548 233.69557"> Core</tspan></text>
</g>
</g>
</svg>
